<svg version="1.1" id="Ebene_1" xmlns="http://www.w3.org/2000/svg" xmlns:xlink="http://www.w3.org/1999/xlink" x="0px" y="0px"
	 viewBox="0 0 280.54 84.28" style="enable-background:new 0 0 280.54 84.28;" xml:space="preserve">
<style>.st0 { fill: currentColor; }</style>
<g id="g12" fill="currentColor">
	<path class="st0" d="M67.41,24.69c-0.09,0.49,0.68,1.34,2.23,2.36c2.73,1.79,16.13,6.36,9.62,9.66c-8.33,4.23-28.46,0.34-44.14,1.3
		C18.94,39,52.67,45.09,69.52,48.03c8.49,1.48,3.98,8.8-13.47,11.84c-9.38,1.63-34.4,5.5-45.81,9.52c-0.06,0.02-0.11,0.04-0.17,0.06
		c7.73,9.07,19.23,14.83,32.08,14.83c23.27,0,42.14-18.87,42.14-42.14c0-7.09-1.76-13.77-4.86-19.64
		C74.95,23.03,67.11,24.05,67.41,24.69z"/>
	<path class="st0" d="M57.46,53.65c2.6-2.24-15.71-2.81-28.08-6.12c-7.25-1.94-18.28-6.35-20.52-9.6c-6.06-8.81,22-5.3,38.99-4.69
		c17.46,0.63,26.24,0.82,21.96-3.09c-3.28-3-5.31-3.58-7.54-5.17c-2.26-2.03-1.71-3.45,1.08-3.45l15.9,0.65
		C72.13,8.97,58.18,0,42.14,0C18.87,0,0,18.87,0,42.14c0,4.95,0.86,9.7,2.43,14.11c0.46-0.09,0.93-0.18,1.42-0.26
		C25.8,52.44,54.47,56.22,57.46,53.65z"/>
<path d="M178.94,47.61v-7.8l2.75-3.61l4.84,9.23c0.24,0.63,0.43,1.37,0.57,2.22c0.66-0.1,2.32-0.15,5-0.15h1.16
	c-0.27-0.32-0.55-0.82-0.85-1.52l-7.22-14.32l7.33-9.57c-0.56,0.1-1.49,0.15-2.79,0.15h-1.04c-0.56,0-1.24-0.02-2.05-0.08
	l-7.69,10.65V22.08c-0.44,0.1-1.22,0.15-2.34,0.15h-0.55c-0.26,0-0.66-0.01-1.2-0.04l-0.76-0.04V47.5h1.5
	C176.95,47.5,178.06,47.53,178.94,47.61z"/>
<path d="M210.81,45.37v-11.7c0.38-0.59,0.84-1.07,1.4-1.43c0.55-0.36,1.09-0.54,1.62-0.54c1.39,0,2.31,0.39,2.75,1.18l0.08-0.06
	l0.34-5.11c-0.68-0.29-1.62-0.44-2.8-0.44c-1.18,0-2.31,0.61-3.39,1.84v-1.46h-4.65V47.5h4.73
	C210.83,47.17,210.81,46.46,210.81,45.37z"/>
<path d="M120.25,45.37V19.2h-4.75v28.3h4.82C120.27,47.17,120.25,46.46,120.25,45.37z"/>
<path d="M130.71,22.99c0.47-0.65,0.97-1.3,1.52-1.98l-4.08-3.21c-1.1,1.2-2.16,2.6-3.17,4.18l4.27,3.08L130.71,22.99z"/>
<path d="M125.23,27.65V47.5h4.82c-0.05-0.33-0.08-1.04-0.08-2.13V27.65H125.23z"/>
<path d="M234.42,40.96c-0.37,0.67-1.06,1.26-2.09,1.77c-0.48,0.24-1.02,0.43-1.61,0.57c-0.59,0.14-1.28,0.21-2.07,0.21
	c-0.79,0-1.54-0.15-2.25-0.46c-2.05-0.91-3.08-2.85-3.08-5.81c0-1.67,0.44-3.01,1.33-4.03c0.44-0.49,0.97-0.88,1.59-1.16
	c0.62-0.28,1.48-0.42,2.56-0.42c1.09,0,2.18,0.19,3.27,0.57c0.67,0.23,1.31,0.71,1.92,1.44l0.13,0.02l0.76-4.86
	c-1.58-1.02-3.55-1.54-5.89-1.54c-3.3,0-5.94,1.03-7.92,3.1c-1.86,1.96-2.79,4.47-2.79,7.52c0,3,0.94,5.41,2.83,7.22
	c1.86,1.79,4.26,2.68,7.2,2.68c3.02,0,5.25-0.71,6.66-2.13l-0.44-4.63L234.42,40.96z"/>
<path d="M256.43,46.38c-0.06-0.43-0.09-1.72-0.09-3.86v-7.56c0-2.32-0.63-4.18-1.9-5.58c-1.29-1.41-3-2.11-5.13-2.11
	c-1.74,0-3.42,0.62-5.05,1.86v-8.79h-4.65V47.5h4.73c-0.05-0.33-0.08-1.04-0.08-2.13V34.3c1.11-1.71,2.41-2.56,3.89-2.56
	c1,0,1.79,0.32,2.37,0.95c0.77,0.84,1.16,2.13,1.16,3.88v11c0.68-0.04,1.23-0.06,1.65-0.06h1.35c0.47,0,1.21,0.04,2.24,0.13
	l0.04-0.08c-0.08-0.1-0.17-0.21-0.28-0.34C256.58,47.08,256.5,46.8,256.43,46.38z"/>
<path d="M280.31,38.49c0.15-0.37,0.23-1.05,0.23-2.05c0-2.61-0.8-4.77-2.41-6.5c-1.63-1.78-3.8-2.68-6.5-2.68
	c-3.19,0-5.77,1.01-7.75,3.02c-0.92,0.95-1.64,2.06-2.15,3.32c-0.51,1.27-0.76,2.64-0.76,4.12c0,2.94,1.06,5.35,3.17,7.24
	c2.1,1.87,4.76,2.81,7.98,2.81c0.58,0,1.19-0.04,1.82-0.11c2.15-0.25,3.71-0.71,4.67-1.37l0.21-2.96c0.04-0.56,0.07-1.1,0.09-1.63
	c-0.19,0.17-0.47,0.34-0.85,0.53c-1.44,0.72-3.17,1.08-5.18,1.08c-1.92,0-3.49-0.38-4.69-1.13c-1.2-0.75-1.97-1.81-2.3-3.16h6.68
	C276.46,39.02,279.04,38.85,280.31,38.49z M269.82,35.47c-0.43,0-0.88-0.01-1.35-0.02h-1.41c-0.44-0.01-0.82-0.03-1.12-0.04
	c0.16-0.61,0.4-1.17,0.7-1.67c1-1.66,2.46-2.49,4.39-2.49c2.44,0,3.92,1.36,4.44,4.08c-0.33,0.03-0.7,0.05-1.12,0.06l-1.56,0.06
	c-0.62,0.01-1.25,0.02-1.9,0.02H269.82z"/>
<path d="M200.82,45.37V27.65h-4.75V47.5h4.82C200.84,47.17,200.82,46.46,200.82,45.37z"/>
<path d="M201.56,23c0.47-0.65,0.98-1.3,1.52-1.98l-4.08-3.21c-1.1,1.2-2.16,2.6-3.17,4.18l4.27,3.08L201.56,23z"/>
<path d="M159.22,47.5h1.43c0.48,0,1.23,0.04,2.24,0.13l0.04-0.08c-0.08-0.1-0.17-0.21-0.27-0.34c-0.11-0.13-0.19-0.41-0.26-0.83
	c-0.06-0.43-0.1-1.72-0.1-3.86v-7.56c0-2.37-0.5-4.23-1.5-5.58c-0.49-0.67-1.12-1.19-1.88-1.56c-0.76-0.37-1.68-0.55-2.76-0.55
	c-1.08,0-2.16,0.27-3.24,0.82c-0.65,0.32-1.46,0.98-2.43,1.98c-0.98-1.86-2.54-2.79-4.69-2.79c-1.82,0-3.6,0.7-5.34,2.09v-1.71h-4.8
	V47.5h4.96c-0.1-0.81-0.15-2.64-0.15-5.49v-7.86c1.11-1.61,2.51-2.41,4.18-2.41c0.41,0,0.75,0.1,1.03,0.29
	c0.28,0.19,0.54,0.59,0.79,1.22c0.25,0.62,0.37,1.96,0.37,4.03v10.29c0.68-0.04,1.4-0.06,2.15-0.06h2.75
	c-0.15-1.98-0.23-4.58-0.23-7.83v-5.01c0-0.1-0.01-0.2-0.02-0.3c0.6-1,1.13-1.67,1.6-2.01c0.28-0.21,0.58-0.37,0.89-0.47
	c0.32-0.09,0.68-0.14,1.09-0.14c0.41,0,0.77,0.09,1.07,0.27c0.91,0.56,1.37,2.32,1.37,5.28v10.28
	C158.18,47.51,158.75,47.5,159.22,47.5z"/>
<path d="M109.54,42.94h-7.75V36.1h4.71c0.96,0,1.75,0.03,2.36,0.09l-0.06-4.69c-0.28,0.08-1.11,0.11-2.51,0.11h-4.5v-4.84h5.98
	c1.21,0,2.15,0.1,2.81,0.29l0.04-0.06c-0.03-0.1-0.04-0.25-0.04-0.46c0-1.86,0.07-3.35,0.21-4.46c-2.84,0.1-5.7,0.15-8.6,0.15
	c-1.04,0-2-0.01-2.89-0.04l-1.33-0.04c-0.42-0.01-0.8-0.03-1.14-0.06V47.5h14.23l0.19-4.77l-0.08-0.02
	C110.87,42.86,110.32,42.94,109.54,42.94z"/>
	<path d="M96.83,69.42V55.93h0.97v12.62h8.06v0.87H96.83z"/>
	<path d="M112.54,68.63c0.91,0,1.67-0.17,2.27-0.51c0.6-0.34,1.08-0.79,1.43-1.35c0.35-0.56,0.59-1.19,0.74-1.9
		c0.15-0.71,0.22-1.43,0.22-2.15v-6.78h0.97v6.78c0,0.9-0.1,1.76-0.29,2.58c-0.2,0.82-0.52,1.55-0.96,2.18
		c-0.44,0.63-1.02,1.12-1.73,1.49c-0.71,0.37-1.58,0.55-2.62,0.55c-1.08,0-1.98-0.19-2.7-0.58c-0.72-0.39-1.3-0.9-1.74-1.54
		c-0.44-0.64-0.75-1.37-0.93-2.18c-0.18-0.81-0.28-1.65-0.28-2.51v-6.78h0.97v6.78c0,0.75,0.07,1.48,0.22,2.18
		c0.15,0.71,0.4,1.34,0.76,1.89c0.36,0.55,0.84,1,1.43,1.33C110.9,68.46,111.64,68.63,112.54,68.63z M110.83,53.69v-1.67h0.84v1.67
		H110.83z M113.42,53.69v-1.67h0.84v1.67H113.42z"/>
	<path d="M122.56,57.76v11.67h-0.97V55.93h0.74l9.46,11.87V55.93h0.97v13.49h-0.89L122.56,57.76z"/>
	<path d="M145.36,68.55v0.87h-8.99V55.93h8.82v0.87h-7.85v5.3h6.86v0.84h-6.86v5.6H145.36z"/>
	<path d="M158.03,65.93c0,0.49-0.09,0.95-0.29,1.38c-0.19,0.42-0.45,0.79-0.78,1.11c-0.33,0.32-0.72,0.56-1.16,0.74
		c-0.44,0.18-0.91,0.27-1.41,0.27h-6.31V55.93h6.29c0.47,0,0.89,0.1,1.27,0.3c0.38,0.2,0.7,0.46,0.97,0.79
		c0.27,0.32,0.47,0.69,0.62,1.1c0.15,0.41,0.22,0.83,0.22,1.25c0,0.68-0.17,1.31-0.51,1.88c-0.34,0.57-0.82,0.99-1.42,1.25
		c0.77,0.23,1.38,0.66,1.83,1.28C157.8,64.42,158.03,65.13,158.03,65.93z M149.06,56.81v5.4H154c0.37,0,0.7-0.08,1.01-0.23
		c0.3-0.15,0.57-0.35,0.79-0.6c0.22-0.25,0.4-0.53,0.52-0.86c0.13-0.33,0.19-0.67,0.19-1.01c0-0.37-0.06-0.71-0.18-1.04
		c-0.12-0.32-0.29-0.61-0.49-0.86s-0.46-0.44-0.75-0.59s-0.61-0.22-0.97-0.22H149.06z M157.06,65.79c0-0.35-0.06-0.7-0.19-1.04
		c-0.13-0.34-0.3-0.63-0.53-0.89c-0.23-0.26-0.5-0.47-0.81-0.62c-0.31-0.15-0.64-0.23-1-0.23h-5.47v5.53h5.34
		c0.38,0,0.73-0.08,1.05-0.23c0.32-0.15,0.6-0.36,0.84-0.62c0.23-0.26,0.42-0.55,0.56-0.88C156.99,66.49,157.06,66.15,157.06,65.79z
		"/>
	<path d="M166.18,68.63c0.91,0,1.67-0.17,2.27-0.51c0.6-0.34,1.08-0.79,1.43-1.35c0.35-0.56,0.59-1.19,0.74-1.9
		c0.15-0.71,0.22-1.43,0.22-2.15v-6.78h0.97v6.78c0,0.9-0.1,1.76-0.29,2.58c-0.2,0.82-0.52,1.55-0.96,2.18
		c-0.44,0.63-1.02,1.12-1.73,1.49c-0.71,0.37-1.58,0.55-2.62,0.55c-1.08,0-1.98-0.19-2.7-0.58c-0.72-0.39-1.3-0.9-1.74-1.54
		c-0.44-0.64-0.75-1.37-0.93-2.18c-0.18-0.81-0.28-1.65-0.28-2.51v-6.78h0.97v6.78c0,0.75,0.07,1.48,0.22,2.18
		c0.15,0.71,0.4,1.34,0.76,1.89c0.36,0.55,0.84,1,1.43,1.33C164.53,68.46,165.28,68.63,166.18,68.63z"/>
	<path d="M175.22,69.42V55.93h5.61c0.57,0,1.1,0.12,1.58,0.36c0.48,0.24,0.9,0.56,1.24,0.96c0.35,0.4,0.62,0.85,0.82,1.35
		c0.2,0.5,0.29,1,0.29,1.51c0,0.49-0.08,0.97-0.23,1.43c-0.15,0.46-0.37,0.88-0.65,1.25s-0.61,0.67-1.01,0.91
		c-0.39,0.24-0.82,0.4-1.29,0.47l3.36,5.24h-1.12l-3.27-5.09h-4.37v5.09H175.22z M176.19,63.44h4.73c0.43,0,0.82-0.09,1.18-0.28
		c0.35-0.19,0.66-0.44,0.91-0.75c0.25-0.31,0.45-0.67,0.58-1.06c0.13-0.4,0.2-0.81,0.2-1.22c0-0.43-0.08-0.85-0.24-1.25
		c-0.16-0.4-0.37-0.75-0.65-1.05c-0.27-0.3-0.59-0.55-0.95-0.73c-0.36-0.18-0.75-0.28-1.17-0.28h-4.6V63.44z"/>
	<path d="M197.59,67.31c-1.3,1.47-2.82,2.2-4.54,2.2c-0.91,0-1.76-0.2-2.54-0.59c-0.78-0.39-1.45-0.91-2-1.56
		c-0.56-0.65-0.99-1.38-1.31-2.2c-0.32-0.82-0.47-1.66-0.47-2.51c0-0.89,0.16-1.74,0.47-2.57c0.31-0.82,0.74-1.55,1.29-2.18
		c0.55-0.63,1.21-1.14,1.97-1.51c0.76-0.37,1.59-0.56,2.49-0.56c0.67,0,1.28,0.07,1.81,0.22s1.02,0.35,1.44,0.61
		c0.42,0.26,0.79,0.57,1.1,0.93c0.31,0.36,0.57,0.76,0.79,1.19l-0.8,0.47c-0.46-0.89-1.06-1.53-1.81-1.93
		c-0.75-0.4-1.61-0.6-2.56-0.6c-0.8,0-1.52,0.17-2.17,0.51c-0.65,0.34-1.2,0.79-1.65,1.35c-0.46,0.56-0.8,1.19-1.04,1.9
		c-0.24,0.71-0.36,1.44-0.36,2.18c0,0.8,0.14,1.55,0.42,2.27c0.28,0.72,0.66,1.35,1.15,1.89c0.49,0.54,1.06,0.98,1.72,1.3
		c0.66,0.32,1.37,0.48,2.13,0.48c0.82,0,1.61-0.19,2.35-0.57c0.74-0.38,1.45-0.98,2.14-1.8v-2.6h-3.06v-0.78h3.9v6.55h-0.84V67.31z"
		/>
</g>
</svg>
